<?xml version="1.0" standalone="no"?>
<!DOCTYPE svg PUBLIC "-//W3C//DTD SVG 20010904//EN"
 "http://www.w3.org/TR/2001/REC-SVG-20010904/DTD/svg10.dtd">
<svg version="1.0" xmlns="http://www.w3.org/2000/svg"
 width="548.000000pt" height="548.000000pt" viewBox="0 0 548.000000 548.000000"
 preserveAspectRatio="xMidYMid meet">
<metadata>
Created by potrace 1.11, written by Peter Selinger 2001-2013
</metadata>
<g transform="translate(0.000000,548.000000) scale(0.100000,-0.100000)"
fill="#000000" stroke="none">
<path d="M6 5301 c-2 -3 -4 -39 -3 -78 l0 -73 36 -6 c180 -29 260 -118 300
-334 16 -87 22 -171 26 -390 5 -247 14 -470 20 -525 3 -22 7 -61 10 -87 31
-305 124 -578 267 -785 67 -98 200 -233 301 -307 218 -160 584 -288 946 -331
30 -4 62 -8 72 -10 35 -7 253 -22 348 -24 l43 -1 -5 -712 c-5 -663 -7 -767
-23 -888 -25 -205 -110 -317 -274 -364 -100 -28 -153 -34 -357 -36 l-133 -1 0
-87 0 -87 1160 0 1160 0 0 87 0 86 -122 1 c-219 2 -341 19 -430 59 -63 28
-132 94 -161 154 -36 74 -45 117 -63 303 -3 33 -8 381 -11 773 l-5 712 23 1
c13 0 58 2 99 3 78 3 241 15 269 21 9 1 41 6 72 9 31 4 67 9 80 11 13 3 38 7
54 10 17 3 41 8 55 10 14 3 36 7 49 10 124 23 344 94 466 150 472 216 755 648
811 1235 3 36 7 76 9 89 5 28 12 236 20 541 3 113 8 223 10 245 12 113 15 135
30 190 46 172 130 250 290 268 l30 4 2 73 c2 45 -1 77 -8 81 -14 8 -169 0
-294 -16 -134 -18 -313 -81 -415 -147 -74 -48 -163 -138 -216 -220 -24 -36
-44 -69 -44 -72 0 -3 -11 -29 -24 -58 -24 -52 -62 -166 -70 -214 -3 -13 -7
-32 -10 -42 -10 -33 -35 -217 -41 -301 -3 -36 -8 -86 -10 -111 -2 -25 -7 -88
-10 -140 -4 -52 -8 -113 -10 -135 -13 -144 -17 -187 -25 -240 -5 -33 -12 -78
-15 -100 -19 -129 -81 -312 -144 -421 -137 -242 -385 -397 -715 -450 -21 -3
-47 -7 -57 -9 -25 -5 -173 -18 -219 -19 l-35 -1 0 915 c0 982 4 1107 37 1255
21 97 80 185 147 219 83 43 243 63 519 65 l83 1 -3 86 -3 87 -1130 -1 c-621 0
-1142 -1 -1157 -1 l-28 -1 0 -85 0 -85 83 -1 c454 -3 570 -42 645 -219 51
-120 57 -250 57 -1315 l0 -920 -45 1 c-237 5 -501 69 -665 162 -244 138 -386
361 -455 718 -11 60 -23 132 -26 159 -2 28 -6 68 -9 90 -6 57 -14 157 -20 250
-5 82 -12 159 -21 255 -3 30 -7 74 -9 96 -2 23 -11 82 -19 130 -87 499 -313
734 -786 817 -80 15 -299 27 -304 18z"/>
</g>
</svg>
